<svg xmlns="http://www.w3.org/2000/svg" width="900" height="500" viewBox="0 0 900 500" role="img" aria-labelledby="t d">
<title id="t">Mapa de ubicación ficticio</title>
<desc id="d">Placeholder de mapa para la página de contacto</desc>
<rect width="900" height="500" fill="#f3edf7"/>
<rect x="30" y="30" width="840" height="440" rx="28" fill="#fff" stroke="#d8cfe3" stroke-width="4"/>
<path d="M90 120h220M160 60v380M310 70l90 360M470 40l-60 390M600 60l120 350M720 90l70 270M80 260h730M100 360h650M250 170h400" stroke="#d7cadf" stroke-width="18" stroke-linecap="round"/>
<circle cx="510" cy="245" r="28" fill="#8a2be2"/>
<path d="M510 175c-30 0-54 24-54 54 0 46 54 112 54 112s54-66 54-112c0-30-24-54-54-54zm0 78a24 24 0 1 1 0-48 24 24 0 0 1 0 48z" fill="#b044d0"/>
<text x="65" y="440" fill="#666" font-family="Arial, Helvetica, sans-serif" font-size="24">Ubicación de referencia: UNIVA / Tepeyac</text>
</svg>